# xmcd
#
# Track frame offsets: 
#        150
#        16837
#        32368
#        49270
#        67861
#        85747
#        105645
#        122843
#        136485
#        152349
#        169626
#        187665
#
# Disc length: 2721 seconds
#
# Revision: 0
# Processed by: cddbd v1.5.2PL0 Copyright (c) Steve Scherf et al.
# Submitted via: ExactAudioCopy v0.99pb4
#
DISCID=840a9f0c
DTITLE=Mobile Unit - Road Songs
DYEAR=2008
DGENRE=Blues
TTITLE0=What's Going On
TTITLE1=Motorcity
TTITLE2=Run For Miles
TTITLE3=Kickstart My Broken Heart
TTITLE4=Back To The Roots And A Bottle Of Wine
TTITLE5=Baby Lets Fall In Love
TTITLE6=Free Spirit
TTITLE7=Twistin' The St.Tropez
TTITLE8=Adam and Eve
TTITLE9=Fool For Your Love
TTITLE10=Something About You
TTITLE11=Pefect World
EXTD=
EXTT0=
EXTT1=
EXTT2=
EXTT3=
EXTT4=
EXTT5=
EXTT6=
EXTT7=
EXTT8=
EXTT9=
EXTT10=
EXTT11=
PLAYORDER=
